<!DOCTYPE svg PUBLIC "-//W3C//DTD SVG 1.1//EN" "http://www.w3.org/Graphics/SVG/1.1/DTD/svg11.dtd">
<svg xmlns="http://www.w3.org/2000/svg" viewBox="0 0 114 115">
<path d="M39.977 5.276C-10.842 22.604-7.79 97.227 44.24 109.494c45.509 10.73 81.805-35.803 60.636-77.739C93.589 9.394 63.683-2.807 39.977 5.276m12.94 12.806C32.68 20.324 17.627 39.759 19.287 61.5c3.52 46.098 69.448 49.691 76.01 4.143.569-3.951.727-8.412.35-9.913L94.962 53H60v13.795l8.417.352c9.874.414 10.462.786 8.326 5.266-7.403 15.523-32.246 12.221-38.745-5.149-8.874-23.718 17.402-45.1 34.46-28.041l4.03 4.03 5.006-1.259c9.002-2.263 10.774-3.583 9.096-6.775-5.987-11.388-22.356-18.834-37.673-17.137" fill-rule="evenodd"/>
</svg>