<!DOCTYPE svg PUBLIC "-//W3C//DTD SVG 1.1//EN" "http://www.w3.org/Graphics/SVG/1.1/DTD/svg11.dtd">
<svg xmlns="http://www.w3.org/2000/svg" viewBox="0 0 1410 482">
<path d="M269.456 118.005C213.011 128.293 173.604 184.914 182.46 243c11.05 72.472 89.974 113.219 156.419 80.757 85.647-41.843 78.398-166.422-11.662-200.406-13.103-4.944-44.183-7.821-57.761-5.346M673 212.5V292h29v-34.057c0-21.529.406-35.67 1.104-38.442 3.251-12.911 19.066-20.24 31.495-14.596 9.466 4.299 10.396 8.653 11.245 52.595l.656 34 14.25.277 14.25.278-.051-25.778c-.09-45.609-.998-56.969-5.239-65.546-7.74-15.656-19.548-23.231-36.21-23.231-11.686 0-17.481 2.117-26 9.497l-5 4.332-.265-29.165L701.97 133H673v79.5m-396.6-64.078c-37.757 8.61-61.795 39.919-61.867 80.578-.066 37.88 20.869 66.09 56.67 76.362 52.305 15.007 99.042-23.263 96.004-78.612l-.426-7.75-28.64-.007c-15.753-.004-31.679-.294-35.391-.645l-6.75-.637V247h17.378c21.309 0 21.359.029 16.73 9.433-14.697 29.853-61.738 27.408-76.587-3.981-14.401-30.441.358-66.856 29.62-73.079 16.488-3.506 26.956-.465 38.524 11.194l7.165 7.221 5.835-1.247c9.971-2.131 20.046-5.486 22.492-7.49l2.343-1.92-2.451-4.815c-6.492-12.758-26.051-27.449-43.049-32.335-9.661-2.776-28.783-3.569-37.6-1.559m171.875 30.117c-42.133 11.348-56.527 68.011-25.296 99.576 21.803 22.038 60.998 21.767 81.802-.566 11.107-11.923 11.168-11.728-5.348-17.198l-11.066-3.665-4.46 4.459c-17.196 17.197-43.803 8.983-48.252-14.895l-.605-3.25h82.094l-.647-5.75c-3.215-28.599-10.336-42.641-26.531-52.317-11.857-7.085-29.233-9.749-41.691-6.394M589 178.302c-6.094 1.711-14.757 6.802-18.946 11.134-5.37 5.553-8.054 3.72-8.054-5.501V180h-25v154.299l9.154-.649c5.034-.358 11.334-.65 14-.65H565v-26c0-18.193.329-26 1.097-26 .603 0 3.064 1.732 5.47 3.85 12.423 10.935 35.809 12.304 52.08 3.049 36.033-20.497 36.426-85.619.628-104.128-10.818-5.593-26.287-7.992-35.275-5.469m455 .289c-12.065 3.203-23.241 10.999-29.178 20.355-5.381 8.478-4.504 9.363 12.548 12.66 8.637 1.67 8.898 1.665 9.924-.195 9.281-16.834 35.682-13.068 40.767 5.815 2.783 10.335 1.053 11.466-13.561 8.866-12.123-2.157-28.332.271-39.521 5.919-21.655 10.931-25.045 37.551-6.645 52.183 17.885 14.223 41.376 13.447 57.792-1.909l4.874-4.559v14.334l12.609-.28 12.61-.28-.161-40.475-.161-40.476-3.698-6.969c-11.025-20.774-35.113-31.116-58.199-24.989m-70.115 1.789c-5.143 1.837-9.676 5.147-15.092 11.018l-4.706 5.102-.044-8.25L954 180h-27v112h28l.021-19.25c.032-28.397 1.394-46.691 3.827-51.414 4.812-9.339 12.68-13.741 24.299-13.595l7.647.095 1.073-7.668c2.605-18.616 2.605-19.81-.004-20.508-3.953-1.058-14.145-.65-17.978.72m-173.827 27.87c.088 43.339.668 48.879 6.304 60.233 8.941 18.01 22.115 25.534 44.638 25.494 21.87-.039 35.31-8.256 45.239-27.658l4.514-8.819.691-38.75.692-38.75H873l-.016 26.25c-.023 36.663-1.045 47.937-4.822 53.196-7.929 11.039-23.781 12.253-32.595 2.496-6.005-6.646-5.958-6.31-6.355-45.692l-.365-36.25H800l.058 28.25m-348.787-7.155c-5.058 2.504-9.376 7.206-12.773 13.909-4.818 9.509-6.107 8.996 22.613 8.996h25.112l-.695-3.703c-3.016-16.075-20.629-25.948-34.257-19.202m136.229 1.806c-14.372 3.693-22 15.17-22 33.099 0 20.138 10.687 32.507 28 32.407 19.331-.111 32.145-19.531 27.537-41.73-3.114-14.997-20.295-27.178-33.537-23.776m460.439 42.408c-15.47 4.362-17.124 18.434-3.021 25.696 3.972 2.045 13.944 1.54 19.863-1.006 11.982-5.154 18.03-20.766 9.167-23.658-5.804-1.895-20.835-2.491-26.009-1.032M247.885 369.18c-.064 1.276-.22 2.77-.348 3.32-.128.55-.301 1.788-.385 2.75-.124 1.43-1.132 1.75-5.517 1.75-9.094 0-13.992 6.247-11.667 14.881 1.792 6.654 10.852 10.899 14.812 6.939.906-.906 1.742-.879 3.604.118 3.775 2.02 4.38.796 5.032-10.188.838-14.116-.194-21.147-3.166-21.57-1.754-.249-2.275.192-2.365 2m31.284-.029c.184 1.294 1.145 2.484 2.162 2.678 1.418.27 1.757-.177 1.5-1.98-.184-1.294-1.145-2.484-2.162-2.678-1.418-.27-1.757.177-1.5 1.98M515.2 368.2c-2.439 2.439-.842 28.438 1.923 31.292 2.012 2.077 2.846-2.313 2.848-14.992.002-16.859-.952-20.119-4.771-16.3m31.969.951c.184 1.294 1.145 2.484 2.162 2.678 1.418.27 1.757-.177 1.5-1.98-.184-1.294-1.145-2.484-2.162-2.678-1.418-.27-1.757.177-1.5 1.98m83.466-.078c-1.449 1.139-2.635 2.949-2.635 4.021 0 1.108-1.078 2.44-2.5 3.088-3.074 1.401-3.187 3.118-.33 5.015 1.88 1.248 2.231 2.605 2.628 10.17.386 7.367.711 8.682 2.08 8.422 1.268-.241 1.731-1.941 2.122-7.799.566-8.484.972-9.407 5.063-11.523 3.741-1.934 3.722-3.136-.063-3.967-3.902-.857-3.899-3.481.006-5.703 1.647-.937 2.994-2.175 2.994-2.75 0-1.853-6.629-1.127-9.365 1.026m102.032-1.406c-1.151 1.15-.774 31.149.4 31.874 2.019 1.248 2.434-.739 2.768-13.264.425-15.982-.48-21.299-3.168-18.61m39.778 4.927c-.802 6.418-.124 26.061.937 27.121.39.39 1.554.181 2.588-.464 1.465-.915 2.501-.867 4.704.215 3.788 1.861 7.542.961 10.984-2.631 8.14-8.496-.908-24.252-11.062-19.262-3.743 1.84-3.596 1.899-3.596-1.448 0-9.782-3.441-12.45-4.555-3.531m56.231-4.88c-1.169 1.892-1.872 15.772-1.205 23.783.673 8.071.855 8.598 2.874 8.31 2.955-.421 3.439-32.032.498-32.599-.911-.175-1.886.053-2.167.506m20.991-.047c-.367.366-.667 7.476-.667 15.8 0 16.6.565 18.519 4.66 15.836 2.19-1.434 2.552-1.421 4.298.159 4.729 4.279 14.042-2.917 14.042-10.849 0-8.56-7.698-15.006-13.433-11.249-3.335 2.185-3.567 2.104-3.567-1.239 0-7.368-2.484-11.308-5.333-8.458m79.669.9c-.331.862-.122 2.047.464 2.633 1.555 1.555 4.2.19 4.2-2.169 0-2.466-3.753-2.839-4.664-.464m259.294.683c-.331 1.238-.603 7.65-.603 14.25 0 12.982.522 16.5 2.445 16.5.8 0 1.462-2.386 1.868-6.741 1.41-15.094 11.603-16.486 11.645-1.591.018 6.051.719 8.332 2.561 8.332 3.083 0 2.97-15.897-.147-20.75-1.229-1.914-2.323-2.25-7.315-2.25-6.469 0-7.084-.571-7.084-6.582 0-3.939-2.404-4.772-3.37-1.168m-986.408-.387c-1.581.977-2.599 14.625-1.759 23.584.666 7.105.877 7.646 2.878 7.361 2.089-.298 2.168-.797 2.434-15.441.28-15.358-.225-17.561-3.553-15.504m328.182-.098c-.603.404-1.425 2.085-1.828 3.735-.402 1.65-1.442 3.788-2.309 4.75-1.438 1.596-1.428 1.914.113 3.618.996 1.1 1.911 4.284 2.228 7.75.833 9.123 2.03 10.882 7.405 10.882 5.029 0 6.421-2.453 1.987-3.5-3.862-.912-3.867-14.087-.005-14.999 3.729-.88 3.767-3.675.061-4.489-2.35-.516-3.056-1.213-3.056-3.02 0-1.292-.707-3.056-1.571-3.921-1.811-1.811-1.607-1.756-3.025-.806m-355.82 3.073c-2.49 4.814-11.694 28.385-11.256 28.823 1.039 1.039 5.653-2.201 6.686-4.696 2.347-5.664 11.742-5.645 16.986.035 3.448 3.735 7 5.265 7 3.016 0-1.972-10.214-26.566-11.74-28.266-2.431-2.709-5.972-2.207-7.676 1.088m996.083-2.171c-.367.366-.667 1.706-.667 2.977 0 1.345-1.019 2.977-2.44 3.908-2.701 1.77-2.465 3.978.509 4.756 1.614.422 1.931 1.412 1.931 6.033 0 5.836 1.333 10.615 3.313 11.873 1.414.9 8.099 1.04 8.951.188 1.077-1.076-.438-3.402-2.216-3.402-5.45 0-7.334-13.766-2.053-15.003 3.729-.874 3.767-3.671.061-4.485-2.057-.451-3.056-1.272-3.056-2.51 0-4.053-2.307-6.361-4.333-4.335m-994.127 8.256c-.831 1.607-1.63 4.42-1.776 6.25-.254 3.197-.112 3.339 3.618 3.645 5.689.467 6.248-.763 3.286-7.231-2.962-6.47-3.118-6.551-5.128-2.664m269.081-.275c-2.164 1.166-3.062 1.256-3.613.364-.404-.653-1.808-1.035-3.121-.849-3.609.51-3.773 22.14-.172 22.652 2.486.353 2.846-.639 3.647-10.039.605-7.09 1.021-7.776 4.722-7.776 3.482 0 4.908 2.695 4.93 9.315.021 6.567.921 8.836 3.366 8.487 1.847-.263 2.159-1.068 2.426-6.261.632-12.299-5.064-19.729-12.185-15.893m42.629-.93c-3.242 1.164-.736 16.887 3.341 20.964 3.385 3.385 10.825 3.005 13.574-.692 4.654-6.258 4.605-19.99-.072-19.99-1.635 0-2.048.926-2.563 5.75-1.345 12.596-2.144 14.142-6.578 12.735-2.332-.74-2.983-2.646-3.669-10.733-.571-6.722-1.658-8.888-4.033-8.034m600.331.994c-2.229 1.167-3.005 1.219-3.609.242-.424-.685-1.491-.969-2.371-.631-2.33.894-2.383 21.44-.058 22.332 2.223.853 2.437.365 3.141-7.172.447-4.787 1.18-7.273 2.475-8.392 5.147-4.448 5.841-5.159 5.841-5.984 0-1.691-2.586-1.88-5.419-.395m18.752-.541c-7.98 2.124-11.106 12.694-5.583 18.875 5.203 5.822 15.239 4.744 18.733-2.013 4.78-9.244-3.222-19.504-13.15-16.862m-847.611 1.784c-.537 2.053.767 15.86 1.807 19.137 1.402 4.416 3.47 1.186 3.473-5.424.002-5.82 2.856-11.238 5.757-10.93 1.66.177 2.241-.285 2.241-1.781 0-2.62-2.704-3.623-5.337-1.979-1.496.935-2.177.979-2.451.158-.651-1.954-4.932-1.316-5.49.819m18.765 3.138c-.941 6.844.274 17.907 1.968 17.907 1.567 0 2.545-4.418 2.545-11.5 0-11.538-3.185-16.06-4.513-6.407m13.128 4.076c5.173 13.912 7.076 16.04 10.731 12.001 2.076-2.294 6.238-12.433 7.193-17.524 1.236-6.593-2.447-4.415-5.687 3.362-3.614 8.675-5.007 8.726-7.967.289-2.069-5.897-2.738-6.838-5.053-7.106l-2.669-.308 3.452 9.286m28.092-7.153c-11.121 8.747 2.489 27.539 14.07 19.427 3.479-2.436 2.648-3.443-2.843-3.443-5.53 0-8.934-1.306-8.934-3.428 0-1.926 2.29-2.572 9.113-2.572 6.777 0 7.894-1.156 5.86-6.065-2.388-5.765-12.113-7.973-17.266-3.919m23.935 1.734c-1.632 9.873-.267 19.484 2.706 19.051 2.439-.355 3.413-3.228 3.552-10.48.131-6.788 3.036-9.916 6.922-7.452 1.672 1.06 3.123 7.218 3.154 13.381.026 5.115 2.253 6.756 3.394 2.5 1.059-3.955.644-15.163-.658-17.75-1.448-2.875-8.028-3.972-11.781-1.963-1.552.83-2.448.846-3.238.056-2.029-2.029-3.428-1.112-4.051 2.657m42.108-2.67c-6.299 3.669-6.181 15.606.204 20.638 3.88 3.057 14.276.614 14.866-3.493.388-2.704-2.273-3.03-4.951-.606-3.711 3.358-9.869-.504-9.869-6.19 0-6.169 5.084-9.16 9.87-5.807 2.142 1.5 2.44 1.495 3.973-.065 3.769-3.835-8.503-7.733-14.093-4.477m26.467.481c-9.466 6.63-5.025 21.439 6.429 21.439 7.24 0 13.49-7.626 11.793-14.389-1.728-6.885-12.505-11.055-18.222-7.05m53.354.01c-3.618 3.619-1.009 8.099 7.386 12.68 4.821 2.631 3.396 4.299-3.403 3.982-6.178-.288-7.165 1.109-2.475 3.502 6.261 3.195 13.921.289 13.921-5.28 0-2.949-4.069-7.455-6.732-7.455-2.515 0-6.444-2.906-5.655-4.183.409-.662 2.797-.803 6.504-.383 5.083.575 5.777.454 5.252-.914-1.402-3.655-11.731-5.016-14.798-1.949m81.071 2.179c-1.693 10.243-.295 19.25 2.989 19.25 2.355 0 2.369-.069 2.369-11.5s-.014-11.5-2.369-11.5c-1.961 0-2.476.646-2.989 3.75m11.833-1.5c-.31 1.238-.431 6.3-.269 11.25.271 8.298.459 9.024 2.414 9.302 2.445.349 3.345-1.92 3.366-8.487.022-6.62 1.448-9.315 4.93-9.315 3.68 0 3.898.358 4.623 7.615.92 9.212 1.308 10.385 3.435 10.385 3.858 0 4.094-14.743.316-19.824-2.282-3.07-8.38-4.171-11.022-1.991-1.257 1.037-1.682 1.051-2.014.065-.753-2.237-5.16-1.474-5.779 1m32.525-.977c-6.223 3.094-7.31 13.422-1.925 18.295 2.332 2.11 9.3 2.457 11.199.558 1.849-1.849 2.726-1.295 2.726 1.719 0 3.927-3.135 6.597-6.715 5.718-7.317-1.797-8.285-1.82-8.285-.2 0 3.72 8.344 6.356 13.414 4.237 5.172-2.16 6.706-5.315 7.208-14.815.24-4.557.594-10.198.785-12.535l.347-4.25-8.127.015c-4.47.008-9.252.574-10.627 1.258m57.75-.193c-6.3 3.67-6.022 15.815.467 20.359 7.428 5.203 20.527-3.354 18.359-11.992-1.847-7.36-12.459-12.076-18.826-8.367m24.88 1.17c-.91 3.397-.719 18.061.255 19.598 1.889 2.981 4.604.83 4.869-3.857.511-9.051 1.133-10.727 4.776-12.876 3.685-2.175 4.658-5.115 1.693-5.115-.978 0-2.73.667-3.893 1.482-1.869 1.308-2.259 1.308-3.345 0-1.784-2.149-3.662-1.818-4.355.768m31.487-.619c-8.831 6.185-4.443 19.369 6.448 19.369 6.5 0 8.575 1.86 5.502 4.933-2.344 2.344-4.365 2.556-8.994.943-2.442-.852-3.509-.835-4.399.071-2.041 2.078 2.795 5.053 8.214 5.053 9.145 0 11.969-4.653 12.839-21.154L725.3 377h-8.928c-6.635 0-9.525.419-11.255 1.631m40.864 1.119c-8.06 7.266-2.566 20.25 8.569 20.25 7.718 0 13.091-9.968 9.333-17.316-3.241-6.337-12.452-7.847-17.902-2.934m58.269-1.53c-4.316 2.082-2.686 3.78 3.628 3.78 3.926 0 6.278.484 7.086 1.456 1.892 2.28.305 3.544-4.446 3.544-4.891 0-10.518 3.754-10.518 7.016 0 4.404 8.328 7.484 13.193 4.881 1.554-.832 2.251-.796 2.833.145 2.827 4.574 5.694-4.916 4.082-13.511-1.449-7.73-8.372-10.921-15.858-7.311m75.447 2.262c-2.367 14.583 6.519 25.256 15.05 18.077 6.159-5.182 7.482-22.511 1.633-21.398-1.592.303-1.957 1.539-2.38 8.066-.342 5.272-1.016 8.224-2.133 9.339-3.51 3.501-7.867-2.389-7.867-10.633 0-7.272-3.259-9.885-4.303-3.451M908 379c-3.707 3.707-1.753 7.618 5.687 11.376 6.459 3.263 5.629 5.06-2.191 4.744-4.134-.168-5.496.122-5.496 1.168 0 3.749 11.635 5.077 15 1.712 3.961-3.961 2.342-8.39-4.198-11.489-7.47-3.539-5.089-7.576 2.948-4.999 1.689.541 2.25.327 2.25-.86 0-3.891-10.519-5.133-14-1.652m22.462-.762c-1.29 3.361.005 21.262 1.538 21.262 2.007 0 2.25-21.583.251-22.25-.688-.229-1.492.216-1.789.988m11.168 1.012c-1.722 6.428-.393 20.75 1.925 20.75.826 0 1.55-1.784 1.928-4.75 1.238-9.72 1.602-11.017 3.595-12.821 3.643-3.296 7.867 1.542 7.921 9.071.038 5.417.966 8.5 2.556 8.5 3.094 0 3.029-15.934-.084-20.685-1.706-2.604-9.055-3.331-11.271-1.115-.933.933-1.467.933-2.4 0-1.848-1.848-3.505-1.43-4.17 1.05m29.77 1.15c-9.477 9.477 4.385 25.743 15.377 18.043 3.646-2.553 2.58-3.443-4.122-3.443-4.987 0-6.717-.411-8.083-1.92-2.493-2.755.386-4.08 8.862-4.08 6.166 0 6.566-.139 6.566-2.277 0-8.981-11.898-13.025-18.6-6.323m26.235-1.327c-4.492 3.533-2.246 8.01 5.441 10.85 6.625 2.447 5.852 4.509-1.826 4.875-7.005.333-7.942 1.597-2.782 3.753 7.812 3.264 14.532.913 14.532-5.085 0-3.679-2.132-5.749-7.209-6.996-3.991-.981-5.516-3.173-3.565-5.125 1.335-1.335 2.06-1.371 5.139-.258 4.297 1.554 5.631.671 3.141-2.081-2.497-2.759-9.324-2.724-12.871.067m23.306-.014c-3.107 3.107-2.314 8.051 1.559 9.719 9.804 4.22 10.069 5.52 1.267 6.222l-6.267.5 2.25 2.25c4.092 4.092 14.664 2.433 15.901-2.495.974-3.88-1.082-6.899-5.76-8.458-4.872-1.624-7.004-4.084-5.149-5.939.93-.93 2.099-.9 5.233.134 4.76 1.571 5.527 1.17 3.445-1.802-2.11-3.013-9.519-3.091-12.479-.131m33.554.355c-7.834 7.834-2.837 18.586 8.64 18.586 6.872 0 7.582 1.377 2.788 5.411-3.582 3.014-3.905 3.07-6.482 1.121-2.486-1.881-4.877-1.916-6.389-.094-1.966 2.369 4.094 4.899 10.305 4.302 8.719-.838 11.422-6.945 10.477-23.673-.447-7.904-1.07-9.026-3.997-7.197-1.487.928-2.379.988-3.155.212-2.099-2.099-9.572-1.283-12.187 1.332m72.505-.943c0 2.074 5.705 17.469 7.094 19.142 3.043 3.667 5.695.69 8.997-10.099 1.364-4.456 1.172-4.677 4.926 5.643 3.426 9.42 5.905 8.661 10.311-3.157 3.853-10.336 4.229-13 1.834-13-2.005 0-3.129 2.244-6.258 12.492l-1.219 3.992-1.714-5.043c-4.661-13.712-7.193-14.581-10.973-3.763-3.21 9.187-3.376 9.29-4.946 3.054-1.857-7.378-3.756-10.732-6.078-10.732-1.086 0-1.974.662-1.974 1.471m-150.393 2.624c-4.168 3.278-3.394 4.905 2.334 4.905 5.322 0 6.973-1.194 4.977-3.598-2.57-3.097-4.579-3.457-7.311-1.307m-653.357-.433c-1.78.718-1.549 4.009.332 4.731 2.531.971 7.242.701 7.957-.456 1.685-2.726-4.378-5.853-8.289-4.275M237 383c-1.238 1.238-2 3.333-2 5.5 0 7.935 8.507 10.281 11.496 3.171 3.048-7.248-4.253-13.914-9.496-8.671m177.2-.8c-3.231 3.231.445 13.8 4.8 13.8 2.284 0 6-4.927 6-7.955 0-5.481-7.243-9.402-10.8-5.845m178.213 1.293c-4.102 6.26 3.998 14.13 8.932 8.678 2.353-2.6 2.181-8.819-.279-10.136-3.379-1.808-6.902-1.215-8.653 1.458M651 383c-2.626 2.626-2.643 8.108-.033 10.47 6.603 5.976 14.892-3.702 8.578-10.015-2.975-2.976-5.87-3.13-8.545-.455m57.571-.429c-1.996 1.997-2.038 7.796-.068 9.432 3.95 3.278 9.497.609 9.497-4.569 0-5.317-5.921-8.37-9.429-4.863m40.884.479c-3.991 4.41-1.035 12.95 4.481 12.95 2.745 0 6.064-4.277 6.064-7.814 0-6.172-6.668-9.42-10.545-5.136m30 .405c-4.222 4.221-1.352 12.545 4.325 12.545 5.43 0 8.128-8.859 3.906-12.826-3.004-2.822-5.204-2.747-8.231.281M857 383c-4.101 4.101-1.363 13 4 13 3.157 0 6-3.554 6-7.5s-2.843-7.5-6-7.5c-1.1 0-2.9.9-4 2m201.174.314c-2.712 2.888-2.776 6.084-.174 8.686 3.294 3.294 7.619 2.554 9.85-1.684 3.567-6.776-4.443-12.572-9.676-7.002m47.899.321c-3.872 4.922-1.331 11.615 4.409 11.615 3.609 0 5.518-2.549 5.518-7.37 0-6.76-5.948-9.304-9.927-4.245m-891.823 3.071c-3.265.629-2.759 2.992.75 3.507 7.343 1.078 12.735-2.216 5.875-3.588-1.719-.344-3.406-.564-3.75-.489-.344.075-1.637.331-2.875.57m594 3.514c-4.654 2.245-1.402 8.081 3.308 5.936 3.383-1.542 4.23-4.107 1.913-5.801-2.147-1.57-2.241-1.572-5.221-.135" fill-rule="evenodd"/>
</svg>