<!DOCTYPE svg PUBLIC "-//W3C//DTD SVG 1.1//EN" "http://www.w3.org/Graphics/SVG/1.1/DTD/svg11.dtd">
<svg xmlns="http://www.w3.org/2000/svg" viewBox="0 0 1088 884">
<path fill="#050505" d="M544 16.632c-42.116 8.027-66.756 51.927-51.283 91.368 18.838 48.021 83.001 57.876 115.353 17.718 17.604-21.851 19.646-54.649 4.845-77.796-12.728-19.906-32.011-30.859-55.415-31.476-6.05-.16-12.125-.076-13.5.186m.024 19.971c-35.535 9.549-47.544 57.037-21.11 83.471 30.483 30.483 81.611 9.097 79.878-33.411L602.5 79.5l-21.75-.27-21.75-.269V96h11.5c12.88 0 13.03.106 9.592 6.79-5.874 11.42-20.7 15.898-33.849 10.225-22.23-9.589-22.262-47.447-.049-57.003 10.858-4.671 20.897-2.78 29.026 5.467l4.719 4.789 8.017-2.317c10.906-3.151 10.815-3.07 8.489-7.599-8.311-16.186-32.195-25.184-52.421-19.749m-246.195 208.46c-46.882 9.604-69.032 64.879-41.968 104.732 20.387 30.022 62.478 38.088 92.971 17.817 46.653-31.015 36.999-102.067-16.332-120.2-8.891-3.023-25.791-4.168-34.671-2.349M547 303v49h18l.004-22.25c.003-20.29.175-22.531 1.952-25.446 3.795-6.223 10.85-8.666 17.275-5.981 6.651 2.779 7.226 5.125 7.587 30.927l.317 22.75h18.017l-.326-25.25c-.32-24.809-.372-25.347-2.939-30.821-7.201-15.356-25.474-19.822-37.828-9.247L565 290.156V254h-18v49m-246.735-38.458c-42.028 11.318-48.764 72.406-10.148 92.024 33.551 17.046 70.435-5.94 68.681-42.802l-.298-6.264-21.75-.27-21.75-.269V324h11.5c12.747 0 12.645-.069 9.604 6.5-8.227 17.77-36.093 17.172-46.594-1-9.269-16.04-2.949-38.763 12.646-45.472 6.366-2.738 16.029-2.983 21.184-.537 3.513 1.667 10.66 8.154 10.66 9.676 0 1.378 2.781.964 11.605-1.728 9.173-2.797 9.284-2.928 6.449-7.59-9.967-16.39-32.051-24.623-51.789-19.307M407.5 282.399c-33.296 10.53-33.111 60.37.261 70.147 14.229 4.168 31.513-1.447 38.925-12.647 3.089-4.669 3.619-4.016-5.798-7.142l-7.612-2.527-2.857 3.028c-9.662 10.237-26.301 5.583-29.042-8.123L400.75 322h50.446l-.664-6.25c-.962-9.042-3.023-15.639-6.55-20.963-7.225-10.908-23.59-16.465-36.482-12.388m86.385-.081c-4.118 1.542-8.496 4.482-11.311 7.598-2.315 2.56-3.535 1.303-3.559-3.666L479 283h-16v95.078l8.75-.289 8.75-.289.275-16.331.275-16.332 3.384 2.971c7.391 6.489 20.46 7.842 30.203 3.125 25.532-12.359 25.591-55.985.09-66.955-6.399-2.753-15.9-3.51-20.842-1.66m279.615.352c-6.331 1.939-12.175 6.213-15.728 11.503-3.98 5.927-3.715 6.359 4.978 8.123l7.75 1.572 1.854-2.462c7.373-9.792 22.37-6.101 24.177 5.95.886 5.913.567 6.211-4.979 4.659-12.067-3.379-29.158.669-34.964 8.28-16.841 22.081 17.604 45.907 38.162 26.397l3.25-3.084V352h16.125l-.313-25.25-.312-25.25-3-5.464c-6.819-12.42-22.082-17.934-37-13.366m-42 .821c-2.331.819-5.564 3.199-7.747 5.707l-3.748 4.302-.002-5.25L720 283h-17v69h18l.006-18.25c.003-10.038.495-20.05 1.093-22.25 2.071-7.618 9.09-12.274 16.92-11.224l3.786.508.598-4.392c1.93-14.193 1.976-13.058-.561-13.738-3.571-.956-6.94-.707-11.342.837M625.17 306.75c.352 23.598.372 23.789 3.178 29.887 5.528 12.014 13.707 16.897 28.152 16.807 14.086-.087 22.087-4.8 27.783-16.364l3.217-6.532.342-23.774.342-23.774H670l-.006 20.75c-.003 11.413-.45 22.351-.993 24.307-3.554 12.792-21.448 12.792-25.002 0-.543-1.956-.99-12.894-.993-24.307L643 283h-18.184l.354 23.75m-215.775-9.849c-3.129 1.908-6.589 6.691-7.848 10.849l-.682 2.25H432.038l-.647-2.75c-2.443-10.373-13.458-15.556-21.996-10.349m82.606 1.222c-12.849 5.124-15.537 27.017-4.394 35.783 13.9 10.933 31.594-3.024 27.429-21.636-2.531-11.308-13.406-17.987-23.035-14.147M780 323.032c-9.621 1.643-12.924 8.198-7.077 14.045 5.068 5.068 16.717 3.374 21.154-3.077 2.636-3.831 3.211-8.669 1.13-9.504-3.114-1.248-11.655-2.071-15.207-1.464m-495 78.373c0 3.375-.034 3.4-3.864 2.886-6.212-.833-9.599 6.747-5.579 12.486 1.661 2.372 6.783 3.099 7.997 1.136.484-.783.976-.783 1.759 0 2.975 2.975 3.687 1.158 3.687-9.413 0-9.833-.127-10.5-2-10.5-1.608 0-2 .667-2 3.405m19.173-1.746c.195 1.013 1.023 1.841 1.841 1.841 2.143 0 1.834-2.906-.355-3.327-1.336-.257-1.743.15-1.486 1.486m145.254-.33c-1.382 3.601.073 19.149 1.823 19.483 1.577.302 1.75-.708 1.75-10.239 0-8.828-.253-10.573-1.531-10.573-.843 0-1.761.598-2.042 1.329m19.746.33c.195 1.013 1.023 1.841 1.841 1.841 2.143 0 1.834-2.906-.355-3.327-1.336-.257-1.743.15-1.486 1.486m51.398-.088c-.864.865-1.571 2.215-1.571 3 0 .786-.675 1.429-1.5 1.429s-1.5.675-1.5 1.5.675 1.5 1.5 1.5c1.167 0 1.5 1.333 1.5 6s.333 6 1.5 6c1.152 0 1.5-1.281 1.5-5.525 0-4.973.25-5.619 2.5-6.475 2.994-1.138 3.304-3 .5-3-1.1 0-2-.623-2-1.383 0-.761.9-1.619 2-1.907 1.1-.287 2-1.015 2-1.616 0-1.655-4.641-1.31-6.429.477M583 408.5c0 8.667.262 10.5 1.5 10.5s1.5-1.833 1.5-10.5-.262-10.5-1.5-10.5-1.5 1.833-1.5 10.5m25 0c0 8.667.262 10.5 1.5 10.5.825 0 1.5-.54 1.5-1.2 0-.933.267-.933 1.2 0 3.646 3.646 10.2-.403 10.2-6.3s-6.554-9.946-10.2-6.3c-.933.933-1.2.267-1.2-3 0-3.067-.405-4.2-1.5-4.2-1.238 0-1.5 1.833-1.5 10.5m34 0c0 9.833.127 10.5 2 10.5s2-.667 2-10.5-.127-10.5-2-10.5-2 .667-2 10.5m13 0c0 10.571.712 12.388 3.687 9.413.783-.783 1.275-.783 1.759 0 2.353 3.807 9.554-.859 9.554-6.19 0-6.231-6.059-10.264-9.8-6.523-.933.933-1.2.267-1.2-3 0-3.533-.317-4.2-2-4.2-1.873 0-2 .667-2 10.5m49.625-9.702c-.791 1.279 1.043 3.525 2.263 2.771 1.606-.992 1.368-3.569-.329-3.569-.793 0-1.663.359-1.934.798M864 408.5c0 8.667.262 10.5 1.5 10.5 1.087 0 1.5-1.118 1.5-4.066 0-4.975 1.461-7.934 3.919-7.934 2.079 0 3.047 2.603 3.067 8.25.01 2.661.45 3.75 1.514 3.75 1.161 0 1.5-1.312 1.5-5.809 0-7.601-1.494-9.697-6.35-8.909-3.607.585-3.65.552-3.65-2.845 0-2.388-.458-3.437-1.5-3.437-1.238 0-1.5 1.833-1.5 10.5m-624.42-6.322c-3.142 7.569-6.58 16.188-6.58 16.494 0 1.731 3.915-.197 4.411-2.172.553-2.204 1.161-2.5 5.129-2.5 3.833 0 4.672.372 5.642 2.5.626 1.375 1.96 2.5 2.964 2.5 1.733 0 1.72-.263-.26-5.25a6784.717 6784.717 0 0 1-3.862-9.75c-2.322-5.881-5.443-6.645-7.444-1.822M256 409c0 9.333.133 10 2 10s2-.667 2-10-.133-10-2-10-2 .667-2 10m202-7.5c0 1.375-.45 2.5-1 2.5s-1 .675-1 1.5.45 1.5 1 1.5 1 1.83 1 4.066c0 5.662 1.442 7.934 5.035 7.934 1.969 0 2.965-.504 2.965-1.5 0-.833-.889-1.5-2-1.5-1.704 0-2-.667-2-4.5s.296-4.5 2-4.5c1.111 0 2-.667 2-1.5s-.889-1.5-2-1.5c-1.467 0-2-.667-2-2.5s-.533-2.5-2-2.5-2 .667-2 2.5m395 0c0 1.556-.567 2.5-1.5 2.5-.825 0-1.5.675-1.5 1.5s.675 1.5 1.5 1.5c1.125 0 1.5 1.2 1.5 4.8 0 2.64.54 5.34 1.2 6 1.759 1.759 6.8 1.537 6.8-.3 0-.825-.852-1.5-1.893-1.5-2.156 0-3.107-1.863-3.107-6.082 0-2.251.457-2.918 2-2.918 1.111 0 2-.667 2-1.5s-.889-1.5-2-1.5c-1.467 0-2-.667-2-2.5 0-1.556-.567-2.5-1.5-2.5s-1.5.944-1.5 2.5m-611.902 4.649C239.527 410.656 239.662 411 243 411c3.503 0 3.419.247 1.487-4.378-1.843-4.411-2.008-4.434-3.389-.473m51.609-1.399c-1.064 1.944.584 14.25 1.909 14.25.993 0 1.384-1.404 1.384-4.965 0-4.76 2.425-8.276 4.369-6.333.347.347.631-.344.631-1.535 0-2.372-1.91-2.857-3.8-.967-.933.933-1.2.933-1.2 0 0-1.307-2.627-1.666-3.293-.45M304 411.5c0 6 .3 7.5 1.5 7.5s1.5-1.5 1.5-7.5-.3-7.5-1.5-7.5-1.5 1.5-1.5 7.5m6.167-6.709c.183.435 1.436 3.83 2.783 7.544 3.191 8.792 5.343 8.833 8.655.165 2.712-7.101 2.873-8.5.975-8.5-.815 0-2.127 2.13-3.083 5.008-1.933 5.821-2.75 5.733-4.49-.482-.949-3.391-1.757-4.526-3.22-4.526-1.075 0-1.804.356-1.62.791M329 406c-6.153 6.153 1.371 16.083 9.066 11.965 3.239-1.734 2.169-3.016-2.279-2.733-3.34.212-4.287-.095-4.573-1.482-.306-1.484.41-1.75 4.713-1.75 4.406 0 5.073-.263 5.073-2 0-2.948-3.561-6-7-6-1.667 0-3.889.889-5 2m15 5.5c0 6.769.19 7.5 1.95 7.5 1.672 0 1.993-.818 2.25-5.74.245-4.689.644-5.806 2.18-6.099 2.58-.491 3.587 1.489 3.605 7.089.011 3.549.394 4.75 1.515 4.75 1.897 0 2.157-11.943.3-13.8-1.547-1.547-6.053-1.547-7.6 0-.933.933-1.2.933-1.2 0 0-.66-.675-1.2-1.5-1.2-1.2 0-1.5 1.5-1.5 7.5m25-5.5c-4.345 4.345-1.305 13 4.566 13 3.353 0 6.434-1.693 6.434-3.535 0-1.654-2.555-1.994-3.5-.465-1.08 1.748-4.388 1.078-5.568-1.126-2.339-4.372 2.495-9.047 5.868-5.674.933.933 1.478.918 2.45-.067 1.002-1.016.865-1.552-.691-2.7-2.76-2.037-7.219-1.773-9.559.567m16.174.314c-2.736 2.913-2.774 6.653-.101 10.051 4.204 5.345 12.927 1.967 12.927-5.005 0-6.472-8.386-9.771-12.826-5.046M401 411.5c0 6.769.19 7.5 1.95 7.5 1.673 0 1.993-.818 2.25-5.75.281-5.387.458-5.75 2.8-5.75 2.342 0 2.519.363 2.8 5.75.257 4.932.577 5.75 2.25 5.75 1.662 0 1.948-.702 1.935-4.75-.025-8.048-4.336-12.694-8.54-9.204-1.023.849-1.445.871-1.445.076 0-.617-.9-1.122-2-1.122-1.822 0-2 .667-2 7.5m18.04-6.048c-1.904 2.294-.818 4.906 2.792 6.71 4.378 2.189 4.881 2.779 3.231 3.799-.795.492-2.372.4-3.725-.217-3.023-1.377-4.428-.014-1.895 1.838 2.369 1.732 6.729 1.846 8.357.218 2.581-2.581.752-7.781-2.75-7.815-.853-.009-2.225-.459-3.05-1-2.418-1.587.721-3.069 3.662-1.729 2.836 1.292 4.098.365 2.358-1.732-1.606-1.935-7.395-1.982-8.98-.072m13.478-.482c-1.054 1.706.478 10.369 2.164 12.231 1.649 1.823 5.905 2.378 7.918 1.034 3.759-2.51 4.953-14.235 1.45-14.235-1.672 0-1.993.818-2.25 5.74-.245 4.689-.644 5.806-2.18 6.099-2.58.491-3.587-1.489-3.605-7.089-.014-4.574-1.808-6.512-3.497-3.78M469 411.5c0 6.833.178 7.5 2 7.5s2-.667 2-7.5-.178-7.5-2-7.5-2 .667-2 7.5m7.667-6.833c-.367.366-.667 3.741-.667 7.5 0 6.108.207 6.833 1.95 6.833 1.673 0 1.993-.818 2.25-5.75.281-5.387.458-5.75 2.8-5.75 2.342 0 2.519.363 2.8 5.75.257 4.932.577 5.75 2.25 5.75 2.535 0 2.821-9.311.393-12.777-1.693-2.418-5.334-2.932-7.243-1.023-.933.933-1.2.933-1.2 0 0-1.283-2.227-1.639-3.333-.533m18.258 1.408c-3.943 3.943-1.311 11.925 3.932 11.925 1.509 0 3.283-.54 3.943-1.2.933-.933 1.2-.738 1.2.878 0 3.364-2.572 4.889-5.554 3.293-1.79-.958-2.791-1.026-3.573-.244-1.566 1.566 3.453 4.659 6.37 3.927 5.33-1.339 6.235-2.966 6.601-11.866l.344-8.372-5.669-.133c-4.382-.103-6.106.304-7.594 1.792M531 406c-4.531 4.531-1.121 13 5.234 13 3.525 0 7.766-3.998 7.766-7.32 0-6.51-8.47-10.21-13-5.68m16 5.5c0 6.833.178 7.5 2 7.5 1.734 0 2-.667 2-5.021 0-4.386.316-5.166 2.5-6.161 2.616-1.192 3.442-3.818 1.2-3.818-.715 0-1.896.563-2.625 1.25-1.06 1-1.417 1-1.783 0-.252-.687-1.096-1.25-1.875-1.25-1.097 0-1.417 1.696-1.417 7.5m18.969-5.469c-4.643 4.643-1.155 12.526 5.167 11.678 4.162-.559 5.208.931 2.33 3.319-1.24 1.03-1.988 1.03-3.905.005-2.475-1.325-5.04-.617-3.98 1.098 1.251 2.024 5.703 2.994 8.473 1.847 3.665-1.519 4.946-4.846 4.946-12.848v-6.777l-5.531-.145c-4.299-.113-5.97.293-7.5 1.823m25.942-.16c-5.143 4.165-1.722 13.129 5.011 13.129 3.92 0 7.078-3.364 7.078-7.539 0-6.565-6.928-9.769-12.089-5.59m35.839-.791c-3.021 1.76-1.915 2.967 2.463 2.688 3.182-.202 4.293.119 4.541 1.315.255 1.23-.326 1.487-2.614 1.151-2.87-.421-7.14 2.386-7.14 4.695 0 3.233 6.362 5.309 8.8 2.871.933-.933 1.2-.933 1.2 0 0 .66.675 1.2 1.5 1.2 2.172 0 2.113-11.244-.071-13.429-1.776-1.775-6.058-2.017-8.679-.491m46.25 4.765c0 7.651 4.637 11.704 9.6 8.39 3.799-2.537 4.949-14.235 1.4-14.235-1.759 0-2 .667-2 5.531 0 4.211-.393 5.682-1.645 6.163-2.412.925-4.355-2.37-4.355-7.385 0-3.164-.399-4.309-1.5-4.309-1.162 0-1.5 1.316-1.5 5.845m17.521-4.224c-2.401 2.402-1.486 4.652 2.729 6.711 4.989 2.438 4.863 4.032-.25 3.168-4.315-.729-5.466.645-2.066 2.465 5.303 2.838 11.565-1.07 8.683-5.419-.746-1.125-2.202-2.202-3.236-2.393-2.77-.511-3.976-1.958-2.699-3.235.776-.776 1.668-.716 3.155.212 2.507 1.566 3.94.512 2.183-1.606-1.662-2.003-6.453-1.948-8.499.097M705 411.5c0 6 .3 7.5 1.5 7.5s1.5-1.5 1.5-7.5-.3-7.5-1.5-7.5-1.5 1.5-1.5 7.5m7 0c0 6 .3 7.5 1.5 7.5 1.087 0 1.5-1.118 1.5-4.066 0-4.679 1.436-7.934 3.5-7.934s3.5 3.255 3.5 7.934c0 2.948.413 4.066 1.5 4.066 1.8 0 2.152-9.913.465-13.066-1.173-2.192-5.864-2.635-7.765-.734-.933.933-1.2.933-1.2 0 0-.66-.675-1.2-1.5-1.2-1.2 0-1.5 1.5-1.5 7.5m19.011-5.71c-6.927 5.609 1.116 16.423 9.055 12.175 3.279-1.755 2.3-3.256-1.642-2.517-2.232.419-4.111.227-5-.511-2.594-2.153-1.487-2.937 4.143-2.937 5.31 0 5.536-.104 4.882-2.25-1.719-5.641-7.073-7.494-11.438-3.96m15.56-.219c-1.851 1.852-1.87 2.001-.579 4.413.545 1.02 2.345 2.151 4 2.514 4.966 1.091 3.943 3.836-1.111 2.982-3.241-.548-4.023-.406-3.669.662.634 1.909 5.024 3.267 8.081 2.499 4.893-1.228 4.571-7.318-.44-8.32-3.311-.663-4.531-2.043-3.084-3.49.66-.66 1.693-.559 3.068.299 2.507 1.566 3.94.512 2.183-1.606-1.645-1.983-6.445-1.956-8.449.047m14.033.584c-1.999 2.854-.48 5.72 3.45 6.506 4.833.966 3.829 3.664-1.057 2.839-3.412-.577-3.912-.441-3.389.92 1.315 3.427 9.741 3.208 10.848-.281.932-2.937-.464-5.191-3.603-5.818-3.311-.663-4.531-2.043-3.084-3.49.66-.66 1.693-.559 3.068.299 2.507 1.566 3.94.512 2.183-1.606-1.882-2.268-6.635-1.912-8.416.631m20.884-.142c-4.496 4.968-.757 12.555 5.756 11.681 4.044-.542 4.674.245 2.185 2.735-1.845 1.845-3.596 2.004-5.133.467-.714-.714-1.688-.776-2.763-.175-1.545.865-1.545 1.024-.003 2.304 2.365 1.963 8.008 1.703 10.42-.48 2.669-2.415 3.147-18.545.55-18.545-.825 0-1.5.54-1.5 1.2 0 .933-.267.933-1.2 0-1.854-1.854-6.291-1.42-8.312.813M798 411.5c0 6 .3 7.5 1.5 7.5.857 0 1.546-.964 1.606-2.25.059-1.238.207-2.925.329-3.75.123-.825.3-2.288.394-3.25.094-.962.83-1.75 1.636-1.75.805 0 1.946-.9 2.535-2 1.249-2.334-1.655-2.945-3.8-.8-.933.933-1.2.933-1.2 0 0-.66-.675-1.2-1.5-1.2-1.2 0-1.5 1.5-1.5 7.5m13.174-5.186c-6.71 7.143 3.444 17.159 10.371 10.231 3-2.999 3.132-6.415.382-9.91-2.709-3.444-7.679-3.592-10.753-.321m15.405-.064c3.252 10.252 4.216 12.25 5.912 12.25 1.294 0 2.217-1.403 3.287-5l1.488-5 1.703 5c2.551 7.491 4.34 7.018 7.354-1.947 2.344-6.971 2.402-7.553.753-7.553-1.306 0-2.175 1.414-3.228 5.25l-1.442 5.25-1.801-5.304c-2.27-6.683-4.321-6.586-6.424.304l-1.526 5-1.472-5.25c-1.123-4.003-1.929-5.25-3.395-5.25-1.539 0-1.78.449-1.209 2.25m-494.329.412c-2.517 1.016-1.3 3.338 1.75 3.338 3.196 0 3.745-.855 1.8-2.8-1.279-1.279-1.595-1.327-3.55-.538M733 408c-.977 1.825-.76 2 2.465 2 3.697 0 4.351-.784 2.335-2.8-1.768-1.768-3.588-1.464-4.8.8m-455.068 1.126c-.826 1.544-.841 2.778-.056 4.5 1.843 4.047 7.124 2.47 7.124-2.126 0-4.449-5.049-6.145-7.068-2.374m109.735-1.459c-1.214 1.214-.692 6.068.785 7.293 3.352 2.782 7.113-1.199 5.431-5.747-.792-2.141-4.659-3.103-6.216-1.546m109.723.76c-1.222 3.184.053 6.066 2.825 6.386 2.878.332 4.691-3.009 3.424-6.311-.733-1.91-5.523-1.967-6.249-.075m35.59.611c-1.411 2.636-.415 5.689 2.119 6.493 2.522.801 4.901-1.118 4.901-3.953 0-4.457-5.022-6.274-7.02-2.54m35.435-.678c-1.345 3.507-.023 6.14 3.085 6.14 4.4 0 4.627-6.813.244-7.317-1.748-.201-2.965.229-3.329 1.177m25.785-.16c-.66.66-1.2 2.145-1.2 3.3 0 4.596 5.281 6.173 7.124 2.126 2.058-4.516-2.583-8.767-5.924-5.426m17.732.926c-.826 1.544-.841 2.778-.056 4.5 1.843 4.047 7.124 2.47 7.124-2.126 0-4.449-5.049-6.145-7.068-2.374m48.268-.926c-.66.66-1.2 2.145-1.2 3.3 0 4.596 5.281 6.173 7.124 2.126 2.058-4.516-2.583-8.767-5.924-5.426m124 0c-2.533 2.533-.637 6.8 3.021 6.8 2.559 0 4.485-4.445 2.804-6.47-1.521-1.833-4.172-1.983-5.825-.33m28.917 1.013c-1.118 3.023-.29 5.597 2.039 6.336 3.601 1.143 5.899-2.636 4.237-6.967-.932-2.428-5.307-1.988-6.276.631M263 411.5c0 1.083 1.111 1.5 4 1.5 2.889 0 4-.417 4-1.5s-1.111-1.5-4-1.5c-2.889 0-4 .417-4 1.5m367.25 1.162c-1.684.68-1.587 2.995.153 3.662 2.294.881 5.478-2.031 3.597-3.29-1.636-1.094-1.895-1.12-3.75-.372M41 644v154h507.427c474.18 0 507.448-.11 507.75-1.678.178-.923.208-70.223.067-154L1055.987 490H41v154m241.5-83.39c-47.163 11.346-67.022 68.673-37.386 107.925 31.525 41.755 100.301 30.98 117.475-18.404 17.897-51.462-27.475-102.178-80.089-89.521M534 620v49h18.897l.302-23.483.301-23.482 3.132-3.13c6.026-6.023 15.973-5.473 19.819 1.095 1.876 3.204 2.075 5.445 2.361 26.5l.312 23 9.438-.319 9.438-.318v-21.248c0-23.556-.915-30.791-4.799-37.963-7.258-13.402-28-16.371-38.163-5.463L553 606.377V571h-19v49m-246.5-39.512c-28.762 7.803-43.495 42.108-30.044 69.957 16.431 34.021 66.906 35.516 83.584 2.476 3.044-6.03 4.905-15.324 4.94-24.671L346 623h-43v16h23.217l-.682 2.75c-1.4 5.647-5.059 10.683-9.961 13.709-7.09 4.377-21.541 4.53-28.729.304-11.911-7.001-17.705-23.768-13.319-38.537 6.125-20.627 31.469-28.036 44.879-13.12l4.588 5.103 8.907-2.733c10.431-3.2 10.602-4.03 2.689-13.025-10.706-12.168-30.219-17.54-47.089-12.963m110.726 17.64c-26.401 4.319-37.808 38.673-20.216 60.885 13.566 17.128 46.474 15.501 56.755-2.806l2.265-4.033-8.103-2.698-8.102-2.699-3.163 3.05c-9.804 9.456-25.778 5.175-28.275-7.577l-.637-3.25h24.552c28.131 0 25.722 1.027 24.511-10.448-2.19-20.752-19.13-33.771-39.587-30.424m85.492-.066c-5.473 1.331-9.146 3.449-13.171 7.593L467 609.307v-10.385l-8.75.289-8.75.289-.26 47.75-.259 47.75H468v-33.156l3.992 3.418c16.079 13.762 42.411 2.69 48.562-20.42 6.985-26.242-13.631-52.422-36.836-46.78m281.552-.008c-10.363 2.045-18.486 7.664-21.843 15.109-2.182 4.837-1.917 5.072 7.674 6.786 6.958 1.243 6.96 1.243 9.018-1.373 5.66-7.196 17.883-7.128 21.704.12.724 1.374 2.293 11.349 1.777 11.293-.055-.006-2.309-.681-5.009-1.5-21.926-6.651-43.709 7.938-38.737 25.944 4.48 16.226 27.707 22.338 41.154 10.829l3.992-3.418V669h17v-22.557c0-28.154-.802-31.988-8.43-40.281-4.603-5.004-18.062-10.169-23.57-9.045-.275.056-2.404.478-4.73.937m-43.465.934c-4.501.827-10.269 4.634-12.016 7.929-1.232 2.325-1.311 2.216-1.789-2.492l-.5-4.925-8.75-.289-8.75-.289V669h18.855l.323-20.75c.282-18.205.553-21.132 2.208-23.864 2.848-4.706 7.013-6.714 13.789-6.65 4.749.044 5.831-.249 5.858-1.591.018-.905.44-4.795.939-8.645.499-3.85.597-7.278.217-7.618-1.251-1.121-6.628-1.584-10.384-.894m-109.58 24.262c.425 27.033 1.066 30.212 7.637 37.898 10.599 12.395 34.178 13.343 46.021 1.85 8.615-8.361 10.325-15.955 9.908-43.998l-.291-19.5-9.182-.287-9.182-.286-.318 22.786c-.272 19.501-.573 23.253-2.085 26.02-3.402 6.226-12.822 8.345-18.219 4.099-5.003-3.935-5.514-6.789-5.514-30.8V599h-19.156l.381 24.25m-213.846-9.868c-3.4 1.539-7.784 6.795-8.648 10.368l-.544 2.25h29.536l-.479-2.504c-1.545-8.082-12.28-13.547-19.865-10.114m79.01 3.523c-16.445 10.027-9.251 38.193 9.402 36.815 22.058-1.631 20.628-38.733-1.491-38.716-2.948.002-6.001.736-7.911 1.901m284.509 25.385c-4.575 3.083-4.889 8.881-.652 12.044 7.721 5.765 21.754-.487 21.754-9.691 0-4.897-14.868-6.555-21.102-2.353M515.28 713.02c-1.221.491-2.507 2.038-2.858 3.437-.352 1.399-1.265 2.543-2.03 2.543-1.869 0-1.782 2.913.108 3.638 1.099.422 1.5 2.153 1.5 6.469 0 5.226.226 5.893 2 5.893 1.778 0 2-.667 2-6s.222-6 2-6c1.333 0 2-.667 2-2 0-1.372-.667-2-2.122-2-1.767 0-1.916-.25-.887-1.489.68-.819 1.587-1.272 2.018-1.006.43.266 1.069-.265 1.42-1.181 1.037-2.703-1.422-3.804-5.149-2.304m-237.279 3.23c.002 3.157-.12 3.25-4.25 3.25-7.069 0-9.845 9.676-4.039 14.08 2.143 1.626 5.916 1.831 6.818.371.444-.718 1.089-.682 2.046.112 3.416 2.835 4.424.435 4.424-10.532V713h-2.5c-2.154 0-2.5.45-2.499 3.25M296.5 714c-.923 1.494.361 3 2.559 3 1.274 0 1.941-.687 1.941-2 0-2.121-3.347-2.865-4.5-1m145.716 9.75c.264 9.989.426 10.75 2.284 10.75 1.858 0 2.02-.761 2.284-10.75l.284-10.75h-5.136l.284 10.75M462 715c0 1.646.518 2.065 2.25 1.82 1.238-.176 2.25-.995 2.25-1.82 0-.825-1.012-1.644-2.25-1.82-1.732-.245-2.25.174-2.25 1.82m113.216 8.75c.264 9.989.426 10.75 2.284 10.75 1.858 0 2.02-.761 2.284-10.75l.284-10.75h-5.136l.284 10.75m24.943-1c-.099 11.036.683 13.43 3.764 11.52 1.248-.773 2.209-.866 2.59-.25 1.1 1.78 5.102 1.019 7.376-1.402 5.006-5.328 1.765-14.081-4.975-13.438-3.831.365-3.914.304-3.914-2.904 0-2.782-.358-3.276-2.377-3.276-2.334 0-2.378.176-2.464 9.75M635 724c0 10.333.121 11 2 11s2-.667 2-11-.121-11-2-11-2 .667-2 11m13-.469c0 8.734.273 10.637 1.601 11.146.88.338 1.905.123 2.276-.478.437-.706 1.198-.763 2.149-.162 6.616 4.184 13.58-7.431 7.876-13.135-1.534-1.534-3.013-1.991-5.5-1.701-3.262.381-3.402.262-3.402-2.902 0-2.852-.339-3.299-2.5-3.299H648v10.531m49.473-9.487c-.918 1.485 1.398 3.943 3.1 3.29 2.192-.842 1.778-4.334-.514-4.334-1.068 0-2.231.47-2.586 1.044M857 724c0 10.24.135 11 1.95 11 1.673 0 1.993-.818 2.25-5.75.264-5.051.567-5.788 2.498-6.063 2.02-.287 2.223.158 2.5 5.5.268 5.158.555 5.849 2.552 6.133 2.133.302 2.25-.015 2.25-6.095 0-7.613-1.933-10.255-6.961-9.517-2.866.42-3.039.256-3.039-2.881 0-2.66-.401-3.327-2-3.327-1.879 0-2 .667-2 11m-627.277-.233c-4.371 11.262-4.366 11.233-1.698 11.233 1.239 0 2.393-.969 2.975-2.5.798-2.098 1.601-2.5 4.997-2.5 3.345 0 4.243.433 5.185 2.5 1.219 2.675 4.818 3.461 4.818 1.051 0-.796-1.663-5.521-3.696-10.5-3.303-8.09-3.966-9.049-6.25-9.034-2.301.016-2.928.982-6.331 9.75M249 724.5c0 9.833.127 10.5 2 10.5s2-.667 2-10.5-.127-10.5-2-10.5-2 .667-2 10.5m202-8c0 1.556-.567 2.5-1.5 2.5-.825 0-1.5.689-1.5 1.531 0 .843.675 1.791 1.5 2.107 1.013.389 1.5 1.979 1.5 4.898 0 5.105 2.1 7.707 5.867 7.268 3.247-.377 4.334-3.804 1.206-3.804-1.14 0-2.09-.112-2.111-.25-1.149-7.607-1.152-7.585 1.207-7.921 3.458-.492 3.709-3.829.288-3.829-2.33 0-2.626-.334-2.212-2.5.4-2.096.096-2.5-1.884-2.5-1.852 0-2.361.539-2.361 2.5m395 0c0 2.231-.412 2.5-3.824 2.5-3.689 0-3.877.169-5.3 4.75l-1.476 4.75-1.344-4.801c-1.728-6.172-5.012-6.399-6.482-.449-.51 2.063-1.218 3.75-1.574 3.75-.356 0-1.064-1.687-1.574-3.75-.685-2.775-1.511-3.833-3.176-4.07-2.792-.396-2.788-.246.202 8.32 3.131 8.968 5.469 9.819 7.675 2.795l1.506-4.795 1.517 4.5c2.388 7.086 4.738 6.209 8.037-3 1.478-4.125 2.716-6.712 2.75-5.75.035.962.738 1.75 1.563 1.75 1.132 0 1.5 1.218 1.5 4.965 0 5.564 2.15 7.716 6.593 6.601 3.113-.781 3.072-2.363-.093-3.566-3.337-1.269-3.758-8-.5-8 1.333 0 2-.667 2-2s-.667-2-2-2c-1.467 0-2-.667-2-2.5s-.533-2.5-2-2.5-2 .667-2 2.5m-560.79 10.365c.261 6.872.49 7.635 2.29 7.635 1.707 0 2.044-.767 2.302-5.244.266-4.613.597-5.318 2.75-5.858 4.865-1.222 3.033-4.167-2.592-4.167h-5.04l.29 7.634M297 727c0 7.333.167 8 2 8s2-.667 2-8-.167-8-2-8-2 .667-2 8m6-7.152c0 .466 1.271 3.954 2.824 7.75 4.039 9.874 6.036 9.883 9.529.045 3.197-9.008 3.19-8.86.426-8.463-1.707.246-2.559 1.476-3.685 5.32l-1.464 5-1.46-5.25c-1.233-4.434-1.825-5.25-3.815-5.25-1.295 0-2.355.382-2.355.848M322 721c-4.622 4.622-.997 14 5.412 14 2.299 0 6.588-2.572 6.588-3.95 0-1.383-3.259-2.191-4.367-1.083-1.52 1.52-4.333 1.257-4.995-.467-.468-1.221.443-1.5 4.893-1.5 6.258 0 7.125-1.625 3.396-6.365-2.597-3.302-7.949-3.613-10.927-.635m15 6.103c0 7.23.169 7.897 2 7.897 1.698 0 2-.667 2-4.418 0-5.642.768-7.582 3-7.582s3 1.94 3 7.582c0 3.751.302 4.418 2 4.418 1.793 0 2-.667 2-6.429 0-8.199-1.193-9.517-8.533-9.429l-5.467.065v7.896m25.736-6.853c-8.005 6.079.818 18.954 9.041 13.193 4.308-3.017 1.778-6.055-2.709-3.253-2.474 1.544-5.068-.423-5.068-3.844 0-2.862 2.536-4.117 5.093-2.52 1.812 1.132 4.907.641 4.907-.778 0-3.286-8.003-5.274-11.264-2.798m15.438 1.064c-2.981 3.174-2.858 8.093.281 11.231 7.069 7.07 17.679-3.02 11.472-10.91-2.768-3.52-8.598-3.679-11.753-.321m16.036 5.578c.261 6.845.491 7.608 2.29 7.608 1.736 0 2.04-.767 2.302-5.813.277-5.342.48-5.787 2.5-5.5 1.931.275 2.234 1.012 2.498 6.063.257 4.932.577 5.75 2.25 5.75 2.145 0 2.191-.167 2.149-7.795-.039-7.128-1.057-8.108-8.313-8.005l-5.965.084.289 7.608m17.99-6.692c-2.974 2.974-.983 7.063 4.056 8.328 4.344 1.09 3.294 2.741-1.256 1.972-3.239-.547-4-.381-4 .877 0 3.548 7.569 4.861 10.345 1.794 2.963-3.274 2.109-6.154-2.345-7.903-2.2-.864-4-1.953-4-2.42 0-1.213 2.4-1.048 3.704.256.723.723 1.684.778 2.789.16 1.57-.879 1.572-1.056.025-2.604-1.929-1.928-7.571-2.207-9.318-.46m12.8 3.235c0 8.407 3.598 12.636 9.492 11.156 5.309-1.332 7.703-14.708 2.758-15.411-2.065-.293-2.251.078-2.265 4.5-.018 5.586-1.121 7.866-3.384 6.997-1.201-.461-1.601-1.996-1.601-6.146 0-5.233-.135-5.531-2.5-5.531-2.291 0-2.5.371-2.5 4.435M462 727c0 7.869.075 8.128 2.25 7.82 2.105-.299 2.25-.804 2.25-7.82s-.145-7.521-2.25-7.82c-2.175-.308-2.25-.049-2.25 7.82m7.21-.108c.261 6.845.491 7.608 2.29 7.608 1.697 0 2.076-.833 2.5-5.5.424-4.667.803-5.5 2.5-5.5s2.076.833 2.5 5.5c.424 4.667.803 5.5 2.5 5.5 1.808 0 1.983-.607 1.822-6.311-.232-8.218-1.054-9.094-8.436-8.989l-5.965.084.289 7.608m18.738-5.84c-4.808 4.808-.743 13.628 5.802 12.589 3.478-.551 4.334.653 1.564 2.203-1.084.607-2.522.563-4.027-.123-3.351-1.527-5.653.775-2.846 2.846 2.699 1.993 7.897 1.789 10.619-.415 1.975-1.599 2.343-3.003 2.732-10.418l.45-8.571-6.173-.03c-4.811-.023-6.603.401-8.121 1.919M524 721c-4.69 4.69-.981 14 5.579 14 6.688 0 10.593-10.013 5.51-14.129-3.067-2.484-8.54-2.42-11.089.129m16 6c0 7.333.167 8 2 8 1.672 0 2-.667 2-4.066 0-4.614 1.43-7.934 3.419-7.934.741 0 1.583-.9 1.871-2 .599-2.29-2.076-2.814-4.09-.8-.933.933-1.2.933-1.2 0 0-.66-.9-1.2-2-1.2-1.833 0-2 .667-2 8m18.944-5.944c-4.804 4.804-.736 13.623 5.806 12.585 3.478-.551 4.334.653 1.564 2.203-1.084.607-2.522.563-4.027-.123-1.735-.791-2.658-.746-3.564.173-1.789 1.815 1.733 4.106 6.313 4.106 5.689 0 7.243-2.478 7.763-12.385l.437-8.328-6.174-.088c-4.859-.069-6.587.326-8.118 1.857m25.129.579c-6.243 7.936 4.361 18.021 11.472 10.91 5.282-5.281 1.752-13.545-5.787-13.545-2.712 0-4.13.657-5.685 2.635M620.2 720.2c-2.951 2.951-.257 4.971 3.761 2.821 1.329-.711 2.165-.574 3.056.5 1.044 1.257.707 1.479-2.24 1.479-2.089 0-4.125.727-5.122 1.829-3.923 4.335-.607 8.02 7.095 7.883l5.25-.094v-6.154c0-4.692-.434-6.547-1.829-7.809-2.125-1.923-8.224-2.202-9.971-.455m46.087 5.031c1.239 13.658 13.52 13.589 14.509-.082.439-6.081.415-6.149-2.176-6.149-2.511 0-2.62.23-2.62 5.531 0 4.15-.4 5.685-1.601 6.146-2.256.866-3.366-1.407-3.384-6.927-.014-4.463-.175-4.75-2.654-4.75-2.63 0-2.637.021-2.074 6.231M684.2 720.2c-2.974 2.974-.983 7.063 4.056 8.328 4.344 1.09 3.294 2.741-1.256 1.972-4.301-.727-5.109.248-2.429 2.929 3.565 3.564 10.429.709 10.429-4.338 0-1.702-.986-2.639-4.035-3.837-2.669-1.048-3.698-1.921-3.042-2.577.656-.656 1.471-.595 2.408.183 1.384 1.148 4.669.609 4.669-.767 0-1.704-2.694-3.093-6-3.093-1.98 0-4.14.54-4.8 1.2m13.217.155c-.286.746-.384 4.233-.218 7.75.271 5.763.523 6.427 2.551 6.715 2.174.308 2.25.046 2.25-7.75 0-7.445-.157-8.07-2.031-8.07-1.118 0-2.266.61-2.552 1.355m7.583 6.741c0 7.17.181 7.904 1.95 7.904 1.673 0 1.993-.818 2.25-5.75.266-5.094.557-5.786 2.55-6.07 2.037-.289 2.262.113 2.375 4.25.191 6.965.22 7.048 2.625 7.39 2.133.302 2.25-.015 2.25-6.095 0-8.092-1.409-9.631-8.767-9.574l-5.233.041v7.904m18.773-6.346c-5.055 5.756-1.448 14.25 6.052 14.25 1.962 0 6.175-2.688 6.175-3.94 0-1.206-3.899-2.032-4.558-.966-.883 1.429-4.17 1.056-4.784-.544-.434-1.13.587-1.515 4.643-1.75 4.906-.283 5.18-.441 4.856-2.8-.536-3.91-3.029-6-7.157-6-2.262 0-4.285.677-5.227 1.75m15.207.288c-1.632 3.048-.29 5.721 3.573 7.117 4.752 1.719 4.332 3.17-.672 2.325-4.768-.806-5.083.97-.619 3.487 5.3 2.988 11.392-2.161 8.106-6.852-.815-1.163-2.329-2.115-3.366-2.115-1.964 0-3.624-1.712-2.626-2.709.316-.317 1.205-.054 1.973.584 1.37 1.136 4.651.585 4.651-.782 0-3.474-9.251-4.36-11.02-1.055m14.585-.11c-2.453 2.711-1.191 5.71 2.983 7.088 4.892 1.614 4.429 3.325-.667 2.464-4.72-.798-5.096.962-.732 3.424 5.473 3.086 12.335-2.501 8.405-6.844-.969-1.072-2.693-2.086-3.83-2.254-2.455-.363-3.593-2.806-1.307-2.806.871 0 1.583.45 1.583 1 0 1.234 1.048 1.255 2.936.061 1.19-.753 1.211-1.178.127-2.485-1.832-2.207-7.368-2.002-9.498.352m20.867.147c-4.421 4.886-.861 13.427 5.298 12.708 2.078-.242 3.27.053 3.27.811 0 1.735-3.033 2.623-4.579 1.341-.729-.605-2.3-.791-3.491-.413l-2.165.687 2.049 2.05c2.931 2.93 8.071 2.575 10.936-.755 1.919-2.231 2.25-3.767 2.25-10.452v-7.837l-5.868-.083c-4.688-.066-6.235.325-7.7 1.943M791 727.083c0 7.25.168 7.917 2 7.917 1.672 0 2-.667 2-4.066 0-4.707 1.438-7.934 3.535-7.934.806 0 1.465-.862 1.465-1.917 0-1.605-.732-1.916-4.5-1.916H791v7.916m13.174-5.769c-2.981 3.174-2.858 8.093.281 11.231 7.242 7.243 17.772-4.111 10.878-11.729-2.419-2.673-8.432-2.404-11.159.498m-569.544.936c-.932 3.479-.801 3.75 1.818 3.75 2.286 0 2.379-.199 1.402-3-1.244-3.569-2.392-3.837-3.22-.75m90.406 1.207c-1.109 1.336-.851 1.543 1.925 1.543 2.12 0 3.065-.423 2.789-1.25-.624-1.877-3.264-2.041-4.714-.293m401.602.043c-.435 1.134.179 1.5 2.516 1.5 2.634 0 2.907-.222 1.846-1.5-.685-.825-1.817-1.5-2.515-1.5-.699 0-1.53.675-1.847 1.5m-455.233 2.022c-.878 3.501 1.794 6.473 4.364 4.852 2.952-1.862 2.274-6.811-.984-7.187-2.222-.256-2.836.168-3.38 2.335m109.61-1.041c-1.576 1.9.082 6.519 2.341 6.519 3.92 0 4.901-7.249 1.056-7.798-1.148-.164-2.676.412-3.397 1.279m109.596.091c-.838 2.183 1.192 5.614 3.099 5.238 2.152-.424 3.743-3.186 2.981-5.174-.802-2.089-5.285-2.135-6.08-.064m35.794.95c-.878 3.501 1.794 6.473 4.364 4.852 2.952-1.862 2.274-6.811-.984-7.187-2.222-.256-2.836.168-3.38 2.335m35.226-1.004c-.977 2.547 1.184 5.649 3.687 5.293 3.491-.497 3.111-6.203-.44-6.615-1.704-.198-2.841.266-3.247 1.322m26.036-.851c-2.032 2.032.176 7.333 3.054 7.333 2.163 0 3.817-4.647 2.304-6.47-1.309-1.577-4.182-2.04-5.358-.863m17.74 1.846c-.665 2.651.933 5.487 3.093 5.487s3.758-2.836 3.093-5.487c-.46-1.833-1.298-2.513-3.093-2.513s-2.633.68-3.093 2.513m48.26-1.846c-1.311 1.311-.657 6.123.915 6.726 2.528.97 3.28.733 4.418-1.393 1.922-3.592-2.576-8.09-5.333-5.333m123.717.775c-.938 2.443.044 5.017 2.061 5.405 2.643.509 4.782-2.554 3.481-4.985-1.18-2.204-4.753-2.475-5.542-.42m29.631.039c-1.576 1.9.082 6.519 2.341 6.519 3.92 0 4.901-7.249 1.056-7.798-1.148-.164-2.676.412-3.397 1.279m-550.301.138c-2.036 2.036-.5 3.381 3.859 3.381 3.816 0 4.519-.29 4.242-1.75-.343-1.81-6.652-3.08-8.101-1.631m366.987 4.013c-1.367 1.367-.673 2.503 1.339 2.188 1.121-.176 2.045-.77 2.052-1.32.017-1.217-2.418-1.84-3.391-.868" fill-rule="evenodd"/>
</svg>