<!DOCTYPE svg PUBLIC "-//W3C//DTD SVG 1.1//EN" "http://www.w3.org/Graphics/SVG/1.1/DTD/svg11.dtd">
<svg xmlns="http://www.w3.org/2000/svg" viewBox="0 0 855 292">
<path d="M158.037 72.992c-39.149 10.628-59.295 56.652-40.98 93.623 20.354 41.087 77.246 48.596 108.289 14.292 24.01-26.531 21.443-69.019-5.643-93.418-15.427-13.897-41.391-20.001-61.666-14.497m250.203 55.597.26 47.588 8.106.162 8.105.161.547-21.611c.438-17.322.874-22.243 2.193-24.794 5.015-9.699 20.885-9.285 23.42.609.534 2.088 1.28 13.246 1.658 24.796l.686 21 7.642-.172c4.204-.094 8.052-.207 8.552-.25.538-.046.652-10.191.278-24.828-.627-24.536-.656-24.797-3.42-30.207-7.516-14.712-27.406-18.501-37.651-7.173-3.182 3.519-3.616 1.606-3.616-15.929V81h-17.019l.259 47.589M164 90.822c-9.05 3.031-14.186 6.155-20.172 12.272-22.328 22.819-17.138 63.269 9.972 77.719 32.777 17.47 69.2-3.779 69.2-40.37v-7.137l-11.25-.649c-6.187-.356-16.105-.65-22.039-.652L178.922 132l.289 8.75.289 8.75 11 .5c12.539.57 12.83.892 7.69 8.5-6.389 9.457-20.359 12.254-32.044 6.415-22.502-11.245-20.182-48.382 3.468-55.499 10.405-3.132 18.975-.957 25.723 6.527l3.838 4.256 6.551-1.645c6.972-1.752 12.274-4.088 12.274-5.408 0-2.383-7.137-10.987-12.212-14.723-11.704-8.616-29.234-11.804-41.788-7.601m107.286 17.569c-30.2 9.868-33.837 51.639-5.786 66.448 12.429 6.561 33.986 2.131 42.212-8.675 4.059-5.333 3.901-5.599-4.874-8.212l-7.081-2.109-3.128 3.017c-8.152 7.861-20.467 6.392-26.033-3.106-5.314-9.067-6.103-8.754 22.042-8.754h24.638l-.671-6.551c-2.068-20.189-12.91-31.508-31.605-32.997-3.186-.254-7.273.141-9.714.939m87.714-.353c-4.406.761-9.715 3.456-13.169 6.685-3.249 3.038-4.831 2.291-4.831-2.282V109h-15v93h16v-5.344c0-2.94.293-10.141.652-16.003l.652-10.658 3.371 2.571c25.292 19.291 57.908-13.044 45.377-44.985-5.395-13.75-19.232-21.932-33.052-19.543m274 .39c-6.884 1.91-10.39 4.072-14.885 9.179-5.225 5.935-5.306 8.012-.365 9.272 9.791 2.497 10.076 2.481 12.781-.733 7.862-9.344 23.441-4 23.462 8.048l.007 3.694-10.271-.582c-22.758-1.289-36.861 9.351-32.729 24.692 4.263 15.834 26.945 21.222 40.644 9.657 4.075-3.44 4.356-3.37 4.357 1.095l.001 3.75 5.749-.155c3.162-.086 6.596-.198 7.63-.25 2.793-.141 1.483-47.574-1.466-53.095-6.616-12.386-21.064-18.416-34.915-14.572m-38.5.026c-.55.204-2.276.654-3.836.999-1.56.346-5.048 2.697-7.75 5.225L578 119.274V109h-16v33.5c0 26.083.277 33.521 1.25 33.595 1.206.091 13.472.054 15-.046.413-.027.759-6.686.77-14.799.03-21.951.951-26.875 5.895-31.5 3.962-3.708 5.889-4.288 12.71-3.831l3.125.209.999-7.814c.55-4.298.705-8.143.344-8.545-.799-.891-6.209-1.828-7.593-1.315M485.027 124.75c.052 30.386 1.744 38.148 10.076 46.234 10.219 9.917 33.511 9.054 42.855-1.589 7.171-8.167 7.701-10.459 8.481-36.685l.709-23.79-8.824.29-8.824.29-.5 22.5c-.448 20.181-.701 22.798-2.454 25.386-3.68 5.435-11.582 7.109-17.247 3.654-5.918-3.608-6.495-6.075-7.071-30.234L501.709 109H485l.027 15.75m-209.408-3.716c-3.724 1.116-7.328 4.519-9.716 9.176-3.019 5.886-3.245 5.79 13.705 5.79h15.609l-.687-2.75c-2.314-9.272-10.684-14.679-18.911-12.216m78.881 2.468c-16.913 5.98-15.376 35.804 2.014 39.067 22.563 4.233 28.939-33.35 6.705-39.525-4.47-1.241-3.815-1.276-8.719.458m277.814 26.448c-12.213 7.447 1.512 19.771 14.588 13.1 6.665-3.4 9.358-12.705 4.098-14.159-5.459-1.51-15.397-.946-18.686 1.059m-481.763 73.237c-.238.722-.578 2.213-.755 3.313-.242 1.511-1.167 2.042-3.786 2.172-4.529.225-7.408 3.589-6.587 7.695.939 4.694 2.255 5.578 8.077 5.424l5.313-.139.672-5.38c.989-7.912-1.287-18.063-2.934-13.085m162.088-.493c-.82.821-.83 12.099-.014 16.181 1.217 6.083 2.375 3.002 2.375-6.316 0-8.658-.689-11.537-2.361-9.865m19.361.747c0 .857.45 1.559 1 1.559s1-.423 1-.941-.45-1.219-1-1.559c-.55-.34-1 .084-1 .941m49.42 2.073c-3.321 3.32-3.429 3.635-1.967 5.722.851 1.215 1.547 4.134 1.547 6.487 0 2.352.45 4.277 1 4.277s1-1.993 1-4.429c0-4.361 1.812-7.546 4.321-7.593.649-.012.108-.846-1.201-1.853l-2.38-1.83 2.124-1.487c1.975-1.384 1.943-2.808-.064-2.808-.477 0-2.448 1.581-4.38 3.514m87.202-.373c-1.493 7.465-.242 17.311 2.086 16.417.79-.303 2.192-.156 3.114.327 2.373 1.243 5.991-.381 7.313-3.282 2.503-5.494-2.654-12.055-7.676-9.766-2.351 1.071-2.459.97-2.459-2.299 0-4.457-1.581-5.385-2.378-1.397m34.017-2.447c-1.485 1.485-.69 19.306.861 19.306 1.227 0 1.5-1.716 1.5-9.441 0-8.658-.689-11.537-2.361-9.865m13 0c-.351.352-.639 4.892-.639 10.089 0 9.242.049 9.438 2.198 8.875 1.209-.316 2.729-.133 3.378.405 1.613 1.339 6.011-.423 7.363-2.949 2.829-5.286-1.118-11.678-6.579-10.654-3.204.601-3.36.492-3.36-2.356 0-2.974-1.144-4.627-2.361-3.41m48.055-.055c-.799.799.104 2.361 1.365 2.361.518 0 .941-.675.941-1.5 0-1.546-1.18-1.987-2.306-.861M721 231.8c0 6.133.399 10.2 1 10.2.55 0 1-1.714 1-3.809 0-8.451 6.138-10.124 7-1.908.641 6.109 2.513 5.709 2.458-.525-.05-5.578-1.318-7.178-5.724-7.224-2.682-.028-3.291-.46-3.569-2.534-.916-6.848-2.165-3.503-2.165 5.8m-613.678-8.003c-1.337.831-8.59 18.269-7.889 18.969.251.251 1.627-.807 3.059-2.352 3.375-3.641 8.974-3.773 11.614-.273 3.096 4.105 3.298 1.087.426-6.385-3.028-7.878-5.364-11.105-7.21-9.959m15.317-.103c-1.481 1.481-.69 18.306.861 18.306 1.221 0 1.5-1.66 1.5-8.941 0-8.212-.707-11.018-2.361-9.365M169.5 224c.34.55 1.041 1 1.559 1s.941-.45.941-1-.702-1-1.559-1-1.281.45-.941 1m150.981 2.399c-1.243 2.62-1.377 3.927-.558 5.457.592 1.107 1.077 3.13 1.077 4.496 0 4.217 1.041 5.648 4.107 5.648 3.302 0 3.889-1.506.893-2.29-3.084-.806-2.881-8.22.25-9.132l2.25-.655-2.25-1.583c-1.238-.871-2.25-2.177-2.25-2.903 0-2.846-1.967-2.308-3.519.962M444 232.5c0 5.667.404 9.5 1 9.5s1-3.833 1-9.5-.404-9.5-1-9.5-1 3.833-1 9.5m266-7.05c0 .798-.778 1.886-1.729 2.418-1.613.903-1.618 1.092-.07 2.802.913 1.008 1.804 3.858 1.979 6.332.304 4.266.487 4.514 3.57 4.811 1.826.176 3.25-.152 3.25-.75 0-.584-.659-1.063-1.465-1.063-3.628 0-4.686-7.314-1.319-9.116l2.216-1.185-2.216-1.472c-1.219-.809-2.216-2.091-2.216-2.849s-.45-1.378-1-1.378-1 .653-1 1.45m-602.869 3.305c-1.968 3.678-1.43 6.245 1.31 6.245 3.354 0 3.658-.94 1.595-4.93-1.71-3.308-1.813-3.355-2.905-1.315m50.772.995c-.472 8.529 1.454 15.083 2.387 8.123.357-2.66 1.386-5.002 2.647-6.023 2.712-2.196 2.803-4.317.124-2.882-1.29.69-2.147.702-2.559.035-.987-1.597-2.493-1.163-2.599.747m11.764-1.083c-1.077 1.076-.77 13.333.333 13.333.571 0 1-3 1-7 0-7.039-.109-7.557-1.333-6.333m5.333-.261c0 2.393 5.49 13.594 6.663 13.594 1.471 0 4.583-6.034 5.93-11.5 1.059-4.299-2.06-1.645-3.619 3.08-1.365 4.136-2.651 4.346-4.102.67-1.782-4.513-2.455-5.611-3.693-6.024-.649-.216-1.179-.135-1.179.18m20.079.859c-6.48 3.306-3.966 12.235 3.446 12.235 5.072 0 5.803-2.271.864-2.686-5.629-.473-5.279-2.438.572-3.214 5.771-.766 6.456-2.34 2.404-5.527-3.045-2.396-3.973-2.499-7.286-.808m13.569.919c-.897 3.347-.759 9.092.256 10.694 1.38 2.18 3.096.321 3.096-3.355 0-4.597.886-6.523 3-6.523s3 1.926 3 6.523c0 4.325 1.646 5.367 2.48 1.57 1.662-7.568-2.145-12.948-7.234-10.225-1.317.705-2.267.711-2.959.019-.692-.692-1.218-.276-1.639 1.297m24.987-.111c-4.771 3.753-2.482 11.927 3.34 11.927 3.873 0 6.025-.931 6.025-2.607 0-1.713-.477-1.737-3.017-.15-2.503 1.563-5.339.026-5.81-3.15-.519-3.504 1.675-5.344 5.513-4.624 3.989.748 4.531-1.056.749-2.494-3.482-1.324-3.784-1.275-6.8 1.098m17.382-.78c-3.518 1.77-4.862 6.107-2.953 9.525 2.005 3.587 7.863 4.255 10.879 1.239 5.307-5.307-1.203-14.146-7.926-10.764m13.856 1.457c-.201 4.325.13 10.586.582 11.039 1.157 1.157 2.547-1.339 2.56-4.598.034-8.153 5.166-8.804 5.985-.76.499 4.907 2.455 7.153 3.609 4.145.919-2.394-.434-8.138-2.523-10.719-1.622-2.002-2.171-2.139-4.433-1.109-1.609.734-2.806.814-3.176.214-1.145-1.853-2.478-.938-2.604 1.788m18.962-2.077c-4.133 1.095-2.92 5.198 2.342 7.919 3.952 2.043 3.59 3.716-.694 3.216-2.177-.254-3.384-.01-3.167.641.193.578 2.113 1.051 4.267 1.051 5.46 0 5.905-5.125.647-7.439-4.108-1.808-3.62-3.649.869-3.285 3.215.262 3.295.193 1.46-1.25-1.961-1.542-2.705-1.653-5.724-.853m11.544.782c-.782 2.037 1.409 10.789 2.945 11.766 5.007 3.185 10.002-1.233 9.487-8.389-.418-5.813-2.12-5.497-2.985.555-1.247 8.713-5.293 9.115-6.417.638-.704-5.305-1.999-7.258-3.03-4.57m36.133 2.472c-.858 5.079.19 10.073 2.113 10.073 1.171 0 1.407-1.342 1.171-6.67-.34-7.653-2.234-9.616-3.284-3.403m7.525-1.525c-1.286 3.383-1.317 8.606-.063 10.59 1.455 2.301 2.857.122 3.213-4.992.282-4.05.563-4.5 2.813-4.5 2.26 0 2.548.472 3 4.922.532 5.234 2.381 7.102 3.51 3.546 1.897-5.978-2.979-13.393-7.29-11.086-1.337.716-2.25.688-3.03-.092-.821-.821-1.39-.395-2.153 1.612M395 228.694c-6.334 2.264-4.762 13.306 1.894 13.306 8.339 0 10.604-10.236 2.862-12.935-1.68-.586-3.1-1.029-3.155-.986-.056.043-.776.32-1.601.615m13.475 1.548c-1.078 4.297-.136 11.258 1.525 11.258 1.051 0 1.592-1.279 1.809-4.278.211-2.921.925-4.663 2.25-5.491 2.756-1.721 2.644-4.178-.123-2.697-1.522.815-2.43.801-3.459-.053-1.115-.926-1.516-.673-2.002 1.261m22.025-1.523c-8.131 1.981-7.027 11.643 1.423 12.453 4.02.385 5.06 2.232 2.138 3.795-1.509.808-2.626.801-4.168-.024-1.479-.792-2.423-.813-3.163-.073-1.589 1.589 4.135 3.525 7.249 2.451 3.473-1.197 4.989-4.817 5.006-11.954.017-7.138-1.522-8.344-8.485-6.648m23.815.288c-6.689 2.695-4.505 12.993 2.756 12.993 6.318 0 9.028-6.992 4.474-11.545-2.614-2.615-3.762-2.845-7.23-1.448m33.685.208-2.5 1.132 2.5.356c5.082.725 7 1.36 7 2.316 0 .54-.879.981-1.953.981-2.806 0-6.841 2.022-7.509 3.762-1.047 2.728 1.429 4.24 6.58 4.015l4.882-.212-.015-5.032c-.023-7.388-3.169-9.95-8.985-7.318m45.872-.024c-.07.72-.246 2.434-.391 3.809-.657 6.242 4.12 11.354 8.446 9.039 2.467-1.32 4.569-7.925 3.667-11.519-1.08-4.304-3.066-2.339-3.398 3.361-.504 8.662-6.196 7.731-6.196-1.013 0-3.463-1.839-6.641-2.128-3.677m18.128.103c-3.493 1.767-3.12 3.787 1.218 6.594 4.212 2.725 4 4.606-.42 3.722-2.105-.421-2.841-.234-2.551.649.224.683 1.986 1.376 3.916 1.542 6.505.557 7.677-4.51 1.739-7.518-3.437-1.741-3.08-3.843.598-3.519 2.854.251 2.906.19 1.059-1.25-2.33-1.817-2.397-1.82-5.559-.22m12.667-.627c-1.077 1.076-.77 13.333.333 13.333.571 0 1-3 1-7 0-7.039-.109-7.557-1.333-6.333m7.015-.015c-1.087 1.086-.795 13.348.318 13.348.55 0 1-1.321 1-2.935 0-7.683 4.756-11.071 6.902-4.916.604 1.732 1.098 4.207 1.098 5.5 0 1.293.45 2.351 1 2.351 1.145 0 1.346-9.949.235-11.573-1.263-1.844-4.293-2.466-6.435-1.32-1.501.803-2.241.798-2.745-.019-.381-.615-.998-.811-1.373-.436m20.318.067c-5.144 1.858-6.343 6.304-2.885 10.7 2.291 2.912 8.783 3.442 9.656.787.305-.928-.282-1.116-2.08-.665-2.521.633-6.691-.893-6.691-2.447 0-.46 2.25-1.135 5-1.5 5.154-.683 6.068-1.853 3.75-4.802-1.469-1.868-4.629-2.838-6.75-2.073m14.25.311c-3.489 1.404-2.861 4.711 1.269 6.68 4.203 2.005 4.002 3.89-.378 3.536-3.735-.302-4.214 1.447-.641 2.343 7.44 1.868 10.818-4.305 3.931-7.182-4.038-1.687-4.087-4.056-.076-3.619 1.455.158 2.645-.179 2.645-.75s-.413-1.038-.918-1.038c-.505 0-1.518-.197-2.25-.437-.733-.241-2.345-.031-3.582.467m13.93.027c-3.398 1.363-2.543 5.063 1.59 6.882 4.012 1.765 3.644 3.615-.678 3.408-4.25-.204-3.521 2.047.8 2.471 6.616.65 8.521-4.912 2.539-7.411-4.152-1.735-4.042-4.027.174-3.643 2.761.252 2.805.194.954-1.25-2.203-1.719-2.228-1.721-5.379-.457m21.135-.05c-7.157 2.884-4.409 11.993 3.619 11.993 3.569 0 4.19 2.328 1.066 4-1.424.762-2.582.759-4.021-.011-2.799-1.498-4.851-.1-2.439 1.664 5.985 4.376 11.46-.663 11.46-10.549 0-6.528-1.033-9.478-2.492-7.118-.423.685-1.244.691-2.503.017-2.143-1.147-1.832-1.147-4.69.004M656 234.8c0 8.073 1.396 9.623 2.356 2.617.415-3.022 1.398-5.208 2.886-6.414 2.603-2.11 1.869-3.668-1.003-2.131-1.37.733-2.268.699-3.086-.119-.871-.871-1.153.609-1.153 6.047m14.409-5.828c-1.15.465-2.679 2.266-3.398 4.001-2.654 6.408 5.998 12.018 10.93 7.086 5.342-5.342-.495-13.932-7.532-11.087m13.647 1.156c.086 3.642 3.535 11.372 5.074 11.372.753 0 2.031-1.912 2.839-4.25 1.825-5.278 2.229-5.285 4.062-.073.808 2.297 1.969 4.339 2.58 4.537 1.472.477 5.616-9.263 5.121-12.038-.391-2.191-1.542-.309-4.175 6.824-.624 1.691-.994 1.317-2.397-2.417-1.933-5.144-3.758-6.2-5.036-2.912-3.138 8.075-2.727 7.772-4.155 3.067-1.572-5.181-3.998-7.73-3.913-4.11m-327.499 1.095c-3.486 4.976-.364 10.283 5.579 9.486 3.283-.441 3.864-.24 3.864 1.336 0 2.592-2.839 3.967-5.836 2.827-2.968-1.128-3.89-.451-2.184 1.604 1.587 1.912 6.027 1.97 8.567.113 1.568-1.146 1.999-2.93 2.297-9.5l.368-8.089h-5.549c-4.601 0-5.816.38-7.106 2.223m-161.022-.28c-1.035 1.676.364 3.057 3.097 3.057 1.855 0 2.427-.459 2.181-1.75-.375-1.968-4.272-2.934-5.278-1.307m396.174-.319c-1.717 1.718-.556 3.376 2.364 3.376 2.388 0 2.999-.391 2.74-1.75-.341-1.79-3.829-2.901-5.104-1.626M142.95 232.56c-1.676 2.02-.123 6.783 2.369 7.263 2.411.464 4.681-1.595 4.681-4.245 0-4.212-4.471-6.126-7.05-3.018m107.411-.058c-1.785 4.651 3.57 9.681 6.313 5.929 1.648-2.254 1.697-4.66.126-6.231-1.686-1.686-5.75-1.495-6.439.302m108.468.194c-.705 2.939.167 5.168 2.283 5.84 2.729.866 5.05-1.337 4.689-4.45-.382-3.283-6.238-4.45-6.972-1.39m34.97.846c-.99 2.172-.853 2.849.938 4.639 3.516 3.517 7.175.589 5.852-4.683-.877-3.494-5.191-3.466-6.79.044m34.746-.683c-.821 2.586.234 4.85 2.542 5.453 2.054.538 4.913-1.606 4.913-3.683 0-3.544-6.409-5.065-7.455-1.77m25.501-.414c-2.845 3.427 1.078 9.221 4.704 6.948 3.568-2.237 2.285-8.393-1.75-8.393-.965 0-2.295.65-2.954 1.445m17.904.115c-1.676 2.02-.123 6.783 2.369 7.263 2.411.464 4.681-1.595 4.681-4.245 0-4.212-4.471-6.126-7.05-3.018m47 0c-1.676 2.02-.123 6.783 2.369 7.263 2.411.464 4.681-1.595 4.681-4.245 0-4.212-4.471-6.126-7.05-3.018m122.132-.159c-2.776 3.345 2.172 8.293 5.517 5.517 2.454-2.037 1.369-6.364-1.685-6.719-1.422-.165-3.146.376-3.832 1.202m28.93.577c-1.44 2.69-.468 5.743 2.087 6.553 2.913.925 5.055-1.328 4.702-4.946-.384-3.94-4.961-5.023-6.789-1.607M129 235c0 .55 1.602 1 3.559 1 2.118 0 3.309-.405 2.941-1-.34-.55-1.941-1-3.559-1s-2.941.45-2.941 1m360.667 1.667c-1.518 1.518-.52 3.333 1.833 3.333 1.833 0 2.5-.533 2.5-2 0-1.951-2.841-2.825-4.333-1.333" fill-rule="evenodd"/>
</svg>